<?xml version="1.0" encoding="UTF-8" standalone="no"?>
<!DOCTYPE svg PUBLIC "-//W3C//DTD SVG 1.1//EN"
 "http://www.w3.org/Graphics/SVG/1.1/DTD/svg11.dtd">
<!-- Generated by graphviz version 2.43.20190912.0211 (20190912.0211)
 -->
<!-- Title: adder Pages: 1 -->
<svg width="323pt" height="121pt"
 viewBox="0.00 0.00 322.60 121.00" xmlns="http://www.w3.org/2000/svg" xmlns:xlink="http://www.w3.org/1999/xlink">
<g id="graph0" class="graph" transform="scale(1 1) rotate(0) translate(4 117)">
<title>adder</title>
<polygon fill="white" stroke="transparent" points="-4,4 -4,-117 318.6,-117 318.6,4 -4,4"/>
<text text-anchor="middle" x="157.3" y="-7.8" font-family="Times,serif" font-size="14.00">adder</text>
<!-- n2 -->
<g id="node1" class="node">
<title>n2</title>
<polygon fill="none" stroke="black" points="54,-87.54 54,-102.46 38.18,-113 15.82,-113 0,-102.46 0,-87.54 15.82,-77 38.18,-77 54,-87.54"/>
<text text-anchor="middle" x="27" y="-91.3" font-family="Times,serif" font-size="14.00">a</text>
</g>
<!-- c8 -->
<g id="node4" class="node">
<title>c8</title>
<polygon fill="none" stroke="black" points="90,-45 90,-91 185,-91 185,-45 90,-45"/>
<text text-anchor="middle" x="103" y="-75.8" font-family="Times,serif" font-size="14.00">A</text>
<polyline fill="none" stroke="black" points="90,-68 116,-68 "/>
<text text-anchor="middle" x="103" y="-52.8" font-family="Times,serif" font-size="14.00">B</text>
<polyline fill="none" stroke="black" points="116,-45 116,-91 "/>
<text text-anchor="middle" x="137.5" y="-71.8" font-family="Times,serif" font-size="14.00">$60</text>
<text text-anchor="middle" x="137.5" y="-56.8" font-family="Times,serif" font-size="14.00">$add</text>
<polyline fill="none" stroke="black" points="159,-45 159,-91 "/>
<text text-anchor="middle" x="172" y="-64.3" font-family="Times,serif" font-size="14.00">Y</text>
</g>
<!-- n2&#45;&gt;c8 -->
<g id="edge2" class="edge">
<title>n2:e&#45;&gt;c8:w</title>
<path fill="none" stroke="black" stroke-width="3" d="M54,-95C67.27,-95 71.16,-86.21 80.04,-82.09"/>
<polygon fill="black" stroke="black" stroke-width="3" points="80.93,-85.47 90,-80 79.49,-78.62 80.93,-85.47"/>
</g>
<!-- n3 -->
<g id="node2" class="node">
<title>n3</title>
<polygon fill="none" stroke="black" points="54,-33.54 54,-48.46 38.18,-59 15.82,-59 0,-48.46 0,-33.54 15.82,-23 38.18,-23 54,-33.54"/>
<text text-anchor="middle" x="27" y="-37.3" font-family="Times,serif" font-size="14.00">b</text>
</g>
<!-- n3&#45;&gt;c8 -->
<g id="edge3" class="edge">
<title>n3:e&#45;&gt;c8:w</title>
<path fill="none" stroke="black" stroke-width="3" d="M54,-41C67.27,-41 71.16,-49.79 80.04,-53.91"/>
<polygon fill="black" stroke="black" stroke-width="3" points="79.49,-57.38 90,-56 80.93,-50.53 79.49,-57.38"/>
</g>
<!-- n4 -->
<g id="node3" class="node">
<title>n4</title>
<polygon fill="none" stroke="black" points="314.6,-60.54 314.6,-75.46 298.78,-86 276.42,-86 260.6,-75.46 260.6,-60.54 276.42,-50 298.78,-50 314.6,-60.54"/>
<text text-anchor="middle" x="287.6" y="-64.3" font-family="Times,serif" font-size="14.00">y</text>
</g>
<!-- x0 -->
<g id="node5" class="node">
<title>x0</title>
<ellipse fill="black" stroke="black" cx="222.8" cy="-68" rx="1.8" ry="1.8"/>
</g>
<!-- c8&#45;&gt;x0 -->
<g id="edge1" class="edge">
<title>c8:e&#45;&gt;x0:w</title>
<path fill="none" stroke="black" stroke-width="3" d="M185,-68C197,-68 202.25,-68 210.88,-68"/>
<polygon fill="black" stroke="black" stroke-width="3" points="211,-71.5 221,-68 211,-64.5 211,-71.5"/>
</g>
<!-- x0&#45;&gt;n4 -->
<g id="edge4" class="edge">
<title>x0:e&#45;&gt;n4:w</title>
<path fill="none" stroke="black" stroke-width="3" d="M224.6,-68C236.6,-68 241.85,-68 250.48,-68"/>
<polygon fill="black" stroke="black" stroke-width="3" points="250.6,-71.5 260.6,-68 250.6,-64.5 250.6,-71.5"/>
</g>
</g>
</svg>
